# xmcd
#
# Track frame offsets:
#	150
#	3365
#	19964
#	41486
#	63715
#	81941
#	94814
#	118689
#	137660
#	151671
#
# Disc length: 2378 seconds
#
# Revision: 2
# Processed by: cddbd v1.5.2PL0 Copyright (c) Steve Scherf et al.
# Submitted via: EasyCDDAExtractor 15.1.0.1
#
DISCID=7a09480a
DTITLE=Brand New Sunset - Welcome Home
DYEAR=2010
DGENRE=Alternative
TTITLE0=Welcome
TTITLE1=Say Goodbye
TTITLE2=ฝน
TTITLE3=สิ่งมีชีวิตที่เรียกว่า"แฝด"
TTITLE4=เพื่อตัวเอง
TTITLE5=Rockstar
TTITLE6=มนตรา
TTITLE7=ลบเลือน
TTITLE8=With You Forever
TTITLE9=END TRANSMISSION
EXTD=
EXTT0=
EXTT1=
EXTT2=
EXTT3=
EXTT4=
EXTT5=
EXTT6=
EXTT7=
EXTT8=
EXTT9=
PLAYORDER=
